<svg width="106" height="106" viewBox="0 0 106 106" fill="none" xmlns="http://www.w3.org/2000/svg">
<path d="M106 0H41.0323V6.83871H34.1935V13.6774H27.3548V27.3548H23.1866L22.1386 31.3521C20.0819 31.9197 18.1072 32.7386 16.2436 33.7986L12.6704 31.7128L4.35626 40.0235L6.44377 43.5968C5.38548 45.4586 4.56484 47.4333 3.99723 49.4917L0 50.5415V62.2972L3.99723 63.3453C4.56484 65.4037 5.38548 67.3784 6.44377 69.2402L4.35626 72.8135L12.6687 81.1259L16.2419 79.0384C18.1038 80.0967 20.0785 80.9173 22.1369 81.4849L23.1866 85.4839H27.3548V106H92.3226V99.1613H99.1613V92.3226H106V0ZM25.823 82.0645L24.9271 78.6486L23.9235 78.4144C21.5283 77.8553 19.251 76.9098 17.1532 75.6036L16.2778 75.0583L13.2226 76.8432L8.639 72.2595L10.4239 69.2043L9.87852 68.329C8.57232 66.2312 7.62858 63.9539 7.06781 61.5586L6.83529 60.5568L3.41935 59.6609V53.1795L6.83529 52.2819L7.06952 51.2801C7.62858 48.8848 8.57403 46.6075 9.88023 44.5115L10.4256 43.6361L8.64071 40.5792L13.2244 35.9973L16.2795 37.7805L17.1549 37.2368C19.2561 35.9289 21.5334 34.9851 23.9235 34.4278L24.9288 34.1935L25.823 30.7742H27.3548V37.7001C17.7841 38.5669 10.2581 46.6263 10.2581 56.4194C10.2581 66.2124 17.7841 74.2718 27.3548 75.1386V82.0645H25.823ZM18.8065 56.4194C18.8065 61.492 22.5113 65.7046 27.3548 66.5235V71.7056C19.6733 70.8525 13.6774 64.3266 13.6774 56.4194C13.6774 48.5138 19.6733 41.9863 27.3548 41.1331V46.3152C22.5113 47.1341 18.8065 51.3467 18.8065 56.4194ZM27.3548 49.8234V63.0153C24.4125 62.2511 22.2258 59.5976 22.2258 56.4194C22.2258 53.2428 24.4125 50.5876 27.3548 49.8234ZM30.7742 102.581V17.0968H75.2258V30.7742H88.9032V102.581H30.7742ZM78.6452 19.5143L86.4857 27.3548H78.6452V19.5143ZM95.7419 95.7419H92.3226V28.3567L77.6433 13.6774H37.6129V10.2581H95.7419V95.7419ZM102.581 88.9032H99.1613V6.83871H44.4516V3.41935H102.581V88.9032Z" fill="#0F2A6E"/>
<path d="M34.1938 71.8066H58.1293V47.8711H34.1938V71.8066ZM37.6132 51.2904H54.71V68.3872H37.6132V51.2904Z" fill="#0F2A6E"/>
<path d="M85.4838 54.71H61.5483V58.1293H85.4838V54.71Z" fill="#0F2A6E"/>
<path d="M85.4838 47.8711H61.5483V51.2904H85.4838V47.8711Z" fill="#0F2A6E"/>
<path d="M85.4838 61.5488H82.0645V64.9682H85.4838V61.5488Z" fill="#0F2A6E"/>
<path d="M78.6451 61.5488H61.5483V64.9682H78.6451V61.5488Z" fill="#0F2A6E"/>
<path d="M85.4838 34.1934H61.5483V37.6127H85.4838V34.1934Z" fill="#0F2A6E"/>
<path d="M71.8064 27.3545H61.5483V30.7738H71.8064V27.3545Z" fill="#0F2A6E"/>
<path d="M71.8064 20.5166H61.5483V23.936H71.8064V20.5166Z" fill="#0F2A6E"/>
<path d="M85.4835 41.0322H68.3867V44.4516H85.4835V41.0322Z" fill="#0F2A6E"/>
<path d="M64.9677 41.0322H61.5483V44.4516H64.9677V41.0322Z" fill="#0F2A6E"/>
<path d="M85.4838 68.3877H61.5483V71.8071H85.4838V68.3877Z" fill="#0F2A6E"/>
<path d="M61.5483 99.162H85.4838V75.2266H61.5483V99.162ZM64.9677 78.6459H82.0645V95.7427H64.9677V78.6459Z" fill="#0F2A6E"/>
<path d="M37.6132 82.0645H34.1938V85.4838H37.6132V82.0645Z" fill="#0F2A6E"/>
<path d="M58.129 82.0645H41.0322V85.4838H58.129V82.0645Z" fill="#0F2A6E"/>
<path d="M58.1293 75.2266H34.1938V78.6459H58.1293V75.2266Z" fill="#0F2A6E"/>
<path d="M58.1293 88.9033H34.1938V92.3227H58.1293V88.9033Z" fill="#0F2A6E"/>
<path d="M51.2906 95.7422H34.1938V99.1615H51.2906V95.7422Z" fill="#0F2A6E"/>
<path d="M58.1288 95.7422H54.7095V99.1615H58.1288V95.7422Z" fill="#0F2A6E"/>
<path d="M46.1616 20.5166C39.5639 20.5166 34.1938 25.885 34.1938 32.4843C34.1938 39.0837 39.5639 44.4521 46.1616 44.4521C52.7592 44.4521 58.1293 39.0837 58.1293 32.4843C58.1293 25.885 52.7592 20.5166 46.1616 20.5166ZM46.1616 41.0327C41.448 41.0327 37.6132 37.1979 37.6132 32.4843C37.6132 27.7708 41.448 23.936 46.1616 23.936C50.8752 23.936 54.71 27.7708 54.71 32.4843C54.71 37.1979 50.8752 41.0327 46.1616 41.0327Z" fill="#0F2A6E"/>
</svg>
