<svg width="126" height="81" viewBox="0 0 126 81" fill="none" xmlns="http://www.w3.org/2000/svg">
<line x1="1.5" y1="81" x2="1.5" y2="32" stroke="#0F2A6E" stroke-width="3"/>
<path d="M2 32.3063C2 10.8065 31.5 8.8049 39.5 29.3057" stroke="#0F2A6E" stroke-width="3"/>
<path d="M44.8438 47.2223C45.1435 47.9946 46.0126 48.3778 46.7849 48.0781C47.5572 47.7784 47.9403 46.9093 47.6406 46.137L44.8438 47.2223ZM38.1016 29.8483L44.8438 47.2223L47.6406 46.137L40.8984 28.763L38.1016 29.8483Z" fill="#0F2A6E"/>
<line x1="45.4988" y1="47.4988" x2="41.4987" y2="47.4955" stroke="#0F2A6E" stroke-width="3" stroke-linecap="round"/>
<path d="M41 47V61" stroke="#0F2A6E" stroke-width="3" stroke-linecap="round"/>
<line x1="40" y1="61.4512" x2="33" y2="61.4512" stroke="#0F2A6E" stroke-width="3" stroke-linecap="round"/>
<line x1="32" y1="59.9512" x2="32" y2="80.9512" stroke="#0F2A6E" stroke-width="3"/>
<circle cx="83.037" cy="27.3329" r="2.03704" fill="#0F2A6E"/>
<circle cx="88.9633" cy="29.1855" r="2.03704" fill="#0F2A6E"/>
<line x1="84.5742" y1="27.1484" x2="84.5742" y2="19.3707" stroke="#0F2A6E"/>
<line x1="90.5" y1="29.3711" x2="90.5" y2="21.5933" stroke="#0F2A6E"/>
<rect x="84.3335" y="19" width="6.66667" height="3.7037" fill="#0F2A6E"/>
<circle cx="105.037" cy="33.3329" r="2.03704" fill="#0F2A6E"/>
<circle cx="110.963" cy="35.1855" r="2.03704" fill="#0F2A6E"/>
<line x1="106.574" y1="33.1484" x2="106.574" y2="25.3707" stroke="#0F2A6E"/>
<line x1="112.5" y1="35.3711" x2="112.5" y2="27.5933" stroke="#0F2A6E"/>
<rect x="106.333" y="25" width="6.66667" height="3.7037" fill="#0F2A6E"/>
<circle cx="55.037" cy="24.3329" r="2.03704" fill="#0F2A6E"/>
<circle cx="60.9633" cy="26.1855" r="2.03704" fill="#0F2A6E"/>
<line x1="56.5742" y1="24.1484" x2="56.5742" y2="16.3707" stroke="#0F2A6E"/>
<line x1="62.5" y1="26.3711" x2="62.5" y2="18.5933" stroke="#0F2A6E"/>
<rect x="56.3335" y="16" width="6.66667" height="3.7037" fill="#0F2A6E"/>
<circle cx="65.037" cy="36.3329" r="2.03704" fill="#0F2A6E"/>
<circle cx="70.9633" cy="38.1855" r="2.03704" fill="#0F2A6E"/>
<line x1="66.5742" y1="36.1484" x2="66.5742" y2="28.3707" stroke="#0F2A6E"/>
<line x1="72.5" y1="38.3711" x2="72.5" y2="30.5933" stroke="#0F2A6E"/>
<rect x="66.3335" y="28" width="6.66667" height="3.7037" fill="#0F2A6E"/>
<path d="M100.5 47.7009V1.75687L124.5 5.5664V61.4152L100.5 47.7009Z" stroke="#0F2A6E" stroke-width="3"/>
<line x1="39.8805" y1="30.5145" x2="104.88" y2="14.5145" stroke="#0F2A6E"/>
<line x1="104.939" y1="40.4963" x2="39.9389" y2="32.4963" stroke="#0F2A6E"/>
</svg>
