<svg width="153" height="107" viewBox="0 0 153 107" fill="none" xmlns="http://www.w3.org/2000/svg">
<line x1="1.5" y1="27.4639" x2="1.5" y2="52.1145" stroke="#0F2A6E" stroke-width="3" stroke-linecap="round"/>
<line x1="7.03027" y1="44.0547" x2="7.03027" y2="52.1149" stroke="#0F2A6E" stroke-width="3" stroke-linecap="round"/>
<line x1="12.5601" y1="44.0547" x2="12.5601" y2="52.1149" stroke="#0F2A6E" stroke-width="3" stroke-linecap="round"/>
<line x1="18.0903" y1="46.8193" x2="18.0903" y2="52.1145" stroke="#0F2A6E" stroke-width="3" stroke-linecap="round"/>
<line x1="1.5" y1="-1.5" x2="25.2289" y2="-1.5" transform="matrix(5.97389e-08 -1 -1 -5.97389e-08 0 81.2646)" stroke="#DADADA" stroke-width="3" stroke-linecap="round"/>
<line x1="1.5" y1="-1.5" x2="9.56024" y2="-1.5" transform="matrix(4.37114e-08 -1 -1 -4.37114e-08 5.53027 65.5967)" stroke="#DADADA" stroke-width="3" stroke-linecap="round"/>
<line x1="1.5" y1="-1.5" x2="9.56024" y2="-1.5" transform="matrix(4.37114e-08 -1 -1 -4.37114e-08 11.0601 65.5967)" stroke="#DADADA" stroke-width="3" stroke-linecap="round"/>
<line x1="18.7773" y1="61.3311" x2="18.7773" y2="56.0359" stroke="#DADADA" stroke-width="3" stroke-linecap="round"/>
<line x1="84.4517" y1="38.5244" x2="84.4517" y2="52.1148" stroke="#0F2A6E" stroke-width="3" stroke-linecap="round"/>
<line x1="101.042" y1="13.6387" x2="101.042" y2="52.1146" stroke="#0F2A6E" stroke-width="3" stroke-linecap="round"/>
<line x1="106.572" y1="17.3252" x2="106.572" y2="52.1144" stroke="#0F2A6E" stroke-width="3" stroke-linecap="round"/>
<line x1="112.103" y1="27.4639" x2="112.103" y2="52.1145" stroke="#0F2A6E" stroke-width="3" stroke-linecap="round"/>
<line x1="117.632" y1="44.0547" x2="117.632" y2="52.1149" stroke="#0F2A6E" stroke-width="3" stroke-linecap="round"/>
<line x1="123.163" y1="44.0547" x2="123.163" y2="52.1149" stroke="#0F2A6E" stroke-width="3" stroke-linecap="round"/>
<line x1="128.693" y1="46.8193" x2="128.693" y2="52.1145" stroke="#0F2A6E" stroke-width="3" stroke-linecap="round"/>
<path d="M79.2651 45.3193L79.2651 54.0754" stroke="#0F2A6E" stroke-width="3" stroke-linecap="round"/>
<path d="M95.8555 2L95.8555 54.0753" stroke="#0F2A6E" stroke-width="3" stroke-linecap="round"/>
<path d="M90.3252 32.416L90.3252 53.6148" stroke="#0F2A6E" stroke-width="3" stroke-linecap="round"/>
<path d="M84.7954 71.127L84.7954 54.5366" stroke="#DADADA" stroke-width="3" stroke-linecap="round"/>
<line x1="1.5" y1="-1.5" x2="39.0542" y2="-1.5" transform="matrix(4.37114e-08 -1 -1 -4.37114e-08 99.542 95.0908)" stroke="#DADADA" stroke-width="3" stroke-linecap="round"/>
<line x1="1.5" y1="-1.5" x2="35.3675" y2="-1.5" transform="matrix(4.37114e-08 -1 -1 -4.37114e-08 105.072 91.4033)" stroke="#DADADA" stroke-width="3" stroke-linecap="round"/>
<line x1="1.5" y1="-1.5" x2="25.2289" y2="-1.5" transform="matrix(5.97389e-08 -1 -1 -5.97389e-08 110.603 81.2646)" stroke="#DADADA" stroke-width="3" stroke-linecap="round"/>
<line x1="1.5" y1="-1.5" x2="9.56024" y2="-1.5" transform="matrix(4.37114e-08 -1 -1 -4.37114e-08 116.132 65.5967)" stroke="#DADADA" stroke-width="3" stroke-linecap="round"/>
<line x1="1.5" y1="-1.5" x2="9.56024" y2="-1.5" transform="matrix(4.37114e-08 -1 -1 -4.37114e-08 121.663 65.5967)" stroke="#DADADA" stroke-width="3" stroke-linecap="round"/>
<line x1="129.379" y1="61.3311" x2="129.379" y2="56.0359" stroke="#DADADA" stroke-width="3" stroke-linecap="round"/>
<path d="M79.2715 62.9342L79.2649 54.5359" stroke="#DADADA" stroke-width="3" stroke-linecap="round"/>
<path d="M95.8555 105.229L95.8555 54.5357" stroke="#DADADA" stroke-width="3" stroke-linecap="round"/>
<path d="M90.3252 75.7354L90.3252 54.5366" stroke="#DADADA" stroke-width="3" stroke-linecap="round"/>
<line x1="29.1504" y1="20.0908" x2="29.1504" y2="52.1149" stroke="#0F2A6E" stroke-width="3" stroke-linecap="round"/>
<line x1="45.7407" y1="13.6387" x2="45.7407" y2="52.1146" stroke="#0F2A6E" stroke-width="3" stroke-linecap="round"/>
<line x1="51.271" y1="17.3252" x2="51.271" y2="52.1144" stroke="#0F2A6E" stroke-width="3" stroke-linecap="round"/>
<line x1="56.8013" y1="27.4639" x2="56.8013" y2="52.1145" stroke="#0F2A6E" stroke-width="3" stroke-linecap="round"/>
<line x1="62.3315" y1="44.0547" x2="62.3315" y2="52.1149" stroke="#0F2A6E" stroke-width="3" stroke-linecap="round"/>
<line x1="67.8613" y1="44.0547" x2="67.8613" y2="52.1149" stroke="#0F2A6E" stroke-width="3" stroke-linecap="round"/>
<line x1="73.3916" y1="46.8193" x2="73.3916" y2="52.1145" stroke="#0F2A6E" stroke-width="3" stroke-linecap="round"/>
<path d="M23.9639 2L23.9639 54.0753" stroke="#0F2A6E" stroke-width="3" stroke-linecap="round"/>
<path d="M40.5542 2L40.5542 54.0753" stroke="#0F2A6E" stroke-width="3" stroke-linecap="round"/>
<path d="M35.0239 32.416L35.0239 53.6148" stroke="#0F2A6E" stroke-width="3" stroke-linecap="round"/>
<line x1="1.5" y1="-1.5" x2="32.6024" y2="-1.5" transform="matrix(-4.37114e-08 -1 -1 4.37114e-08 27.6504 88.6387)" stroke="#DADADA" stroke-width="3" stroke-linecap="round"/>
<line x1="1.5" y1="-1.5" x2="39.0542" y2="-1.5" transform="matrix(4.37114e-08 -1 -1 -4.37114e-08 44.2407 95.0908)" stroke="#DADADA" stroke-width="3" stroke-linecap="round"/>
<line x1="1.5" y1="-1.5" x2="35.3675" y2="-1.5" transform="matrix(4.37114e-08 -1 -1 -4.37114e-08 49.771 91.4033)" stroke="#DADADA" stroke-width="3" stroke-linecap="round"/>
<line x1="1.5" y1="-1.5" x2="25.2289" y2="-1.5" transform="matrix(5.97389e-08 -1 -1 -5.97389e-08 55.3013 81.2646)" stroke="#DADADA" stroke-width="3" stroke-linecap="round"/>
<line x1="1.5" y1="-1.5" x2="9.56024" y2="-1.5" transform="matrix(4.37114e-08 -1 -1 -4.37114e-08 60.8315 65.5967)" stroke="#DADADA" stroke-width="3" stroke-linecap="round"/>
<line x1="151.5" y1="94.5117" x2="151.5" y2="56.0358" stroke="#DADADA" stroke-width="3" stroke-linecap="round"/>
<line x1="145.97" y1="90.8252" x2="145.97" y2="56.036" stroke="#DADADA" stroke-width="3" stroke-linecap="round"/>
<line x1="140.44" y1="80.6865" x2="140.44" y2="56.0359" stroke="#DADADA" stroke-width="3" stroke-linecap="round"/>
<line x1="134.91" y1="64.0967" x2="134.91" y2="56.0364" stroke="#DADADA" stroke-width="3" stroke-linecap="round"/>
<line x1="1.5" y1="-1.5" x2="39.0542" y2="-1.5" transform="matrix(4.37114e-08 1 1 -4.37114e-08 153 13.0605)" stroke="#0F2A6E" stroke-width="3" stroke-linecap="round"/>
<line x1="1.5" y1="-1.5" x2="35.3675" y2="-1.5" transform="matrix(4.37114e-08 1 1 -4.37114e-08 147.47 16.7471)" stroke="#0F2A6E" stroke-width="3" stroke-linecap="round"/>
<line x1="1.5" y1="-1.5" x2="25.2289" y2="-1.5" transform="matrix(2.76839e-08 1 1 -2.76839e-08 141.94 26.8857)" stroke="#0F2A6E" stroke-width="3" stroke-linecap="round"/>
<line x1="1.5" y1="-1.5" x2="9.56024" y2="-1.5" transform="matrix(4.37114e-08 1 1 -4.37114e-08 136.41 42.5547)" stroke="#0F2A6E" stroke-width="3" stroke-linecap="round"/>
<line x1="1.5" y1="-1.5" x2="9.56024" y2="-1.5" transform="matrix(4.37114e-08 -1 -1 -4.37114e-08 66.3613 65.5967)" stroke="#DADADA" stroke-width="3" stroke-linecap="round"/>
<line x1="74.0781" y1="61.3311" x2="74.0781" y2="56.0359" stroke="#DADADA" stroke-width="3" stroke-linecap="round"/>
<path d="M23.9639 105.229L23.9639 54.5357" stroke="#DADADA" stroke-width="3" stroke-linecap="round"/>
<path d="M40.5542 105.229L40.5542 54.5357" stroke="#DADADA" stroke-width="3" stroke-linecap="round"/>
<path d="M35.0239 75.7354L35.0239 54.5366" stroke="#DADADA" stroke-width="3" stroke-linecap="round"/>
</svg>
